<?xml version="1.0" encoding="UTF-8" standalone="no"?>
<!-- Created with Inkscape (http://www.inkscape.org/) -->

<svg
   xmlns:dc="http://purl.org/dc/elements/1.1/"
   xmlns:cc="http://creativecommons.org/ns#"
   xmlns:rdf="http://www.w3.org/1999/02/22-rdf-syntax-ns#"
   xmlns:svg="http://www.w3.org/2000/svg"
   xmlns="http://www.w3.org/2000/svg"
   xmlns:xlink="http://www.w3.org/1999/xlink"
   xmlns:sodipodi="http://sodipodi.sourceforge.net/DTD/sodipodi-0.dtd"
   xmlns:inkscape="http://www.inkscape.org/namespaces/inkscape"
   width="150"
   height="150"
   viewBox="0 0 39.687501 39.687497"
   version="1.1"
   id="svg8"
   inkscape:version="0.92.4 (5da689c313, 2019-01-14)"
   sodipodi:docname="logo.svg"
   inkscape:export-filename="C:\Users\DAYANA\Desktop\frontend\sabanasyedredones\svg\logo.png"
   inkscape:export-xdpi="96"
   inkscape:export-ydpi="96">
  <defs
     id="defs2">
    <linearGradient
       inkscape:collect="always"
       id="linearGradient5568">
      <stop
         style="stop-color:#5a5f73;stop-opacity:1"
         offset="0"
         id="stop5564" />
      <stop
         style="stop-color:#130a19;stop-opacity:1"
         offset="1"
         id="stop5566" />
    </linearGradient>
    <linearGradient
       inkscape:collect="always"
       xlink:href="#linearGradient5568"
       id="linearGradient5570"
       x1="83.520035"
       y1="77.192184"
       x2="167.04007"
       y2="125.4125"
       gradientUnits="userSpaceOnUse"
       gradientTransform="matrix(0.40376607,0,0,0.40376607,-17.194782,166.93242)" />
  </defs>
  <sodipodi:namedview
     id="base"
     pagecolor="#ffffff"
     bordercolor="#666666"
     borderopacity="1.0"
     inkscape:pageopacity="0.0"
     inkscape:pageshadow="2"
     inkscape:zoom="2.8"
     inkscape:cx="45.134026"
     inkscape:cy="51.287194"
     inkscape:document-units="px"
     inkscape:current-layer="layer2"
     showgrid="false"
     fit-margin-top="0"
     fit-margin-left="0"
     fit-margin-right="0"
     fit-margin-bottom="0"
     inkscape:window-width="1920"
     inkscape:window-height="1017"
     inkscape:window-x="-8"
     inkscape:window-y="-8"
     inkscape:window-maximized="1"
     inkscape:pagecheckerboard="true"
     showguides="false"
     units="px">
    <inkscape:grid
       type="axonomgrid"
       id="grid3885"
       units="px"
       empspacing="5"
       spacingy="10.715625"
       originx="-15.432169"
       originy="-25.102035" />
  </sodipodi:namedview>
  <metadata
     id="metadata5">
    <rdf:RDF>
      <cc:Work
         rdf:about="">
        <dc:format>image/svg+xml</dc:format>
        <dc:type
           rdf:resource="http://purl.org/dc/dcmitype/StillImage" />
        <dc:title></dc:title>
      </cc:Work>
    </rdf:RDF>
  </metadata>
  <g
     inkscape:groupmode="layer"
     id="layer2"
     inkscape:label="Capa 2"
     style="display:inline"
     transform="translate(-15.432169,-189.21047)">
    <path
       style="fill:#ffffff;fill-opacity:1;stroke:none;stroke-width:0.04409722px;stroke-linecap:butt;stroke-linejoin:miter;stroke-opacity:1"
       d="m 17.133066,201.49469 9.5124,-7.11855 6.740577,-2.45685 5.291666,0.25199 11.339285,6.11061 3.35665,3.69926 -17.404765,12.67971 -0.706353,11.56207 -10.128964,-3.37258 -7.244543,-5.60665 -1.574901,-6.23661 z"
       id="path5683"
       inkscape:connector-curvature="0" />
    <path
       style="fill:#e1e1e1;fill-opacity:1;stroke:none;stroke-width:0.10682976px;stroke-linecap:butt;stroke-linejoin:miter;stroke-opacity:1"
       d="m 35.262526,226.22293 c 0,0 -2.181788,-9.29047 0,-13.05612 1.46697,-2.53191 5.142412,-3.94077 8.626081,-5.71757 5.086034,-2.59407 7.9589,-5.69701 9.485037,-5.46809 l 0.623628,13.42528 -7.994255,6.93146 z"
       id="path4027"
       inkscape:connector-curvature="0"
       sodipodi:nodetypes="csscccc" />
    <path
       style="color:#000000;font-style:normal;font-variant:normal;font-weight:normal;font-stretch:normal;font-size:medium;line-height:normal;font-family:sans-serif;font-variant-ligatures:normal;font-variant-position:normal;font-variant-caps:normal;font-variant-numeric:normal;font-variant-alternates:normal;font-feature-settings:normal;text-indent:0;text-align:start;text-decoration:none;text-decoration-line:none;text-decoration-style:solid;text-decoration-color:#000000;letter-spacing:normal;word-spacing:normal;text-transform:none;writing-mode:lr-tb;direction:ltr;text-orientation:mixed;dominant-baseline:auto;baseline-shift:baseline;text-anchor:start;white-space:normal;shape-padding:0;clip-rule:nonzero;display:inline;overflow:visible;visibility:visible;opacity:1;isolation:auto;mix-blend-mode:normal;color-interpolation:sRGB;color-interpolation-filters:linearRGB;solid-color:#000000;solid-opacity:1;vector-effect:none;fill:url(#linearGradient5570);fill-opacity:1;fill-rule:nonzero;stroke:none;stroke-width:2.13659549;stroke-linecap:round;stroke-linejoin:round;stroke-miterlimit:4;stroke-dasharray:none;stroke-dashoffset:0;stroke-opacity:1;color-rendering:auto;image-rendering:auto;shape-rendering:auto;text-rendering:auto;enable-background:accumulate"
       d="m 35.250641,190.54168 c -1.233663,0.0134 -2.871245,0.4652 -4.860963,1.19948 -1.989719,0.73427 -4.259438,1.77007 -6.423979,3.02193 -2.164546,1.25186 -4.222975,2.71327 -5.786001,4.34916 -1.563026,1.63589 -2.683147,3.49071 -2.666275,5.53523 l -0.08123,8.88758 c -3.2e-5,0.005 -3.2e-5,0.009 0,0.0142 0.0086,1.97712 1.152725,3.75644 2.723843,5.34201 1.571119,1.58557 3.632219,3.01702 5.798616,4.24901 2.166399,1.23199 4.436327,2.25739 6.428715,2.9833 1.992383,0.72589 3.633292,1.17408 4.884622,1.16792 8.33e-4,0 0.0017,0 0.0025,0 1.24364,-0.009 2.88864,-0.46028 4.882258,-1.19316 1.993618,-0.73289 4.26525,-1.76683 6.433443,-3.01563 2.168193,-1.24881 4.232013,-2.70608 5.805717,-4.3326 1.573701,-1.62652 2.710891,-3.46305 2.727785,-5.49342 3.6e-5,-0.005 3.6e-5,-0.01 0,-0.015 l -0.05368,-8.62973 c 0,-2.03915 -1.134675,-3.8832 -2.708071,-5.51155 -1.573399,-1.62836 -3.63996,-3.08394 -5.80966,-4.33181 -2.169699,-1.24787 -4.44133,-2.28174 -6.428712,-3.01642 -1.987385,-0.73468 -3.617271,-1.18824 -4.837308,-1.21051 -0.0105,-1.5e-4 -0.02103,-1.5e-4 -0.03153,0 z m 0.0079,2.13871 c 0.63473,0.0149 2.257748,0.38705 4.120461,1.07565 1.871892,0.69199 4.052622,1.68406 6.1046,2.86422 2.051975,1.18017 3.97621,2.55489 5.33807,3.96432 1.361858,1.40943 2.107153,2.81063 2.107153,4.0274 -8e-6,0.002 -8e-6,0.005 0,0.006 l 0.0047,0.78466 c -5.693077,5.10027 -14.64993,8.79767 -14.64993,8.79767 -1.346025,0.525 -0.526295,2.54217 0.80438,1.97941 0,0 6.123277,-2.48286 11.714613,-6.4063 0.730109,-0.5123 1.451142,-1.04918 2.148287,-1.6083 l 0.0096,1.49942 0.02277,3.57525 c -0.01037,1.21191 -0.763112,2.61473 -2.126868,4.02426 -1.364037,1.40982 -3.286415,2.78592 -5.336495,3.96669 -2.050077,1.18077 -4.229643,2.17259 -6.104593,2.86184 -1.873625,0.68878 -3.512359,1.05616 -4.158319,1.06147 -0.627636,0.004 -2.26823,-0.3552 -4.141756,-1.03781 -1.873534,-0.68259 -4.053681,-1.66714 -6.104598,-2.83345 -2.050922,-1.16632 -3.974436,-2.52113 -5.336495,-3.89572 -1.361761,-1.37428 -2.099599,-2.72923 -2.104789,-3.84603 -1e-6,-1.6e-4 1e-6,-3.3e-4 0,-8.3e-4 l 0.0055,-0.57805 c 0.413371,0.33356 0.793863,0.65802 1.303565,1.0181 1.586909,1.12104 3.599576,2.35628 5.696099,3.50771 2.096518,1.15143 4.271461,2.21596 6.189767,2.98645 1.894075,0.76076 3.442567,1.28249 4.790778,1.1908 2.350322,0.004 5.463185,-1.33327 8.470415,-2.82637 3.023242,-1.50103 5.70284,-3.10807 6.879005,-4.14886 1.066975,-0.9442 -0.349362,-2.54427 -1.416337,-1.60007 -0.708558,0.627 -3.502285,2.39064 -6.412939,3.83577 -2.910654,1.44515 -6.172099,2.61856 -7.5438,2.60792 -0.03133,-1.6e-4 -0.06262,8.4e-4 -0.09384,0.004 -0.487874,0.0391 -2.073174,-0.32047 -3.876787,-1.0449 -1.803615,-0.72442 -3.921365,-1.75834 -5.957917,-2.87682 -2.036547,-1.11849 -3.997174,-2.32407 -5.491849,-3.37996 -0.747337,-0.52795 -1.37828,-1.02034 -1.832718,-1.42895 -0.4188,-0.37658 -0.631054,-0.67171 -0.677413,-0.74051 l 0.04889,-5.41772 c 5.1e-5,-0.006 5.1e-5,-0.012 0,-0.0181 -0.01011,-1.22492 0.724092,-2.62791 2.074821,-4.04161 1.350732,-1.41368 3.265929,-2.79322 5.311263,-3.97613 2.04533,-1.18292 4.221895,-2.17587 6.093552,-2.86658 1.86252,-0.68734 3.487897,-1.05504 4.129144,-1.06541 z"
       id="path3901-0"
       inkscape:connector-curvature="0"
       sodipodi:nodetypes="cssscccccccccscccccssccccssscccccscccscsccsscccssscsccscccccccccssscc" />
    <flowRoot
       xml:space="preserve"
       id="flowRoot5606"
       style="font-style:normal;font-variant:normal;font-weight:normal;font-stretch:normal;font-size:39.99971771px;line-height:1.25;font-family:Bahnschrift;-inkscape-font-specification:'Bahnschrift, Normal';font-variant-ligatures:normal;font-variant-caps:normal;font-variant-numeric:normal;font-feature-settings:normal;text-align:start;letter-spacing:0px;word-spacing:0px;writing-mode:lr-tb;text-anchor:start;fill:#ff6600;fill-opacity:1;stroke:none"
       transform="matrix(0.60411858,0,-0.06335404,0.60411858,-21.189758,-182.05734)"><flowRegion
         id="flowRegion5608"
         style="font-style:normal;font-variant:normal;font-weight:normal;font-stretch:normal;font-size:39.99971771px;font-family:Bahnschrift;-inkscape-font-specification:'Bahnschrift, Normal';font-variant-ligatures:normal;font-variant-caps:normal;font-variant-numeric:normal;font-feature-settings:normal;text-align:start;writing-mode:lr-tb;text-anchor:start;fill:#ff6600"><rect
           id="rect5610"
           width="304.28571"
           height="213.57143"
           x="197.85715"
           y="572.14288"
           style="font-style:normal;font-variant:normal;font-weight:normal;font-stretch:normal;font-size:39.99971771px;font-family:Bahnschrift;-inkscape-font-specification:'Bahnschrift, Normal';font-variant-ligatures:normal;font-variant-caps:normal;font-variant-numeric:normal;font-feature-settings:normal;text-align:start;writing-mode:lr-tb;text-anchor:start;fill:#ff6600" /></flowRegion><flowPara
         id="flowPara5617" /></flowRoot>  </g>
  <g
     inkscape:label="Capa 1"
     inkscape:groupmode="layer"
     id="layer1"
     transform="translate(94.180918,-215.57952)"
     style="display:inline;opacity:1" />
</svg>
